<?xml version="1.0" standalone="no"?>
<!DOCTYPE svg PUBLIC "-//W3C//DTD SVG 20010904//EN"
 "http://www.w3.org/TR/2001/REC-SVG-20010904/DTD/svg10.dtd">
<svg version="1.0" xmlns="http://www.w3.org/2000/svg"
 width="512.000000pt" height="512.000000pt" viewBox="0 0 512.000000 512.000000"
 preserveAspectRatio="xMidYMid meet">
<metadata>
Created by potrace 1.14, written by Peter Selinger 2001-2017
</metadata>
<g transform="translate(0.000000,512.000000) scale(0.100000,-0.100000)"
fill="#000000" stroke="none">
<path d="M1185 4685 c-528 -80 -954 -433 -1113 -925 -57 -175 -67 -245 -66
-465 1 -215 14 -307 71 -495 161 -535 568 -1074 1183 -1569 63 -51 123 -99
132 -106 160 -130 644 -444 893 -581 22 -12 78 -44 125 -70 78 -45 91 -49 150
-49 63 0 70 3 215 84 130 73 426 253 544 331 21 14 58 38 82 54 397 262 836
642 1078 931 18 22 50 60 70 83 154 186 338 488 424 697 53 131 111 329 123
425 2 19 7 46 10 60 12 57 12 329 -1 421 -76 536 -423 947 -950 1124 -42 14
-51 17 -175 42 -83 17 -360 23 -450 10 -334 -49 -669 -216 -927 -460 l-41 -39
-92 81 c-153 135 -344 253 -525 324 -85 33 -258 81 -335 92 -84 13 -339 12
-425 0z"/>
</g>
</svg>
